<?xml version="1.0" encoding="UTF-8" standalone="no"?>
<!DOCTYPE svg PUBLIC "-//W3C//DTD SVG 1.1//EN" "http://www.w3.org/Graphics/SVG/1.1/DTD/svg11.dtd">
<svg width="100%" height="100%" viewBox="0 0 160 160" version="1.1" xmlns="http://www.w3.org/2000/svg" xmlns:xlink="http://www.w3.org/1999/xlink" xml:space="preserve" xmlns:serif="http://www.serif.com/" style="fill-rule:evenodd;clip-rule:evenodd;stroke-linecap:round;stroke-linejoin:round;stroke-miterlimit:1.5;">
    <g transform="matrix(0.87007,0,0,0.87007,-280.626,-941.436)">
        <circle cx="414.479" cy="1173.97" r="86.2" style="fill:none;stroke:white;stroke-width:11.49px;"/>
    </g>
    <g transform="matrix(1.37832,0,0,3.29489,2482.79,-988.008)">
        <clipPath id="_clip1">
            <ellipse cx="-1743.27" cy="324.14" rx="54.414" ry="22.762"/>
        </clipPath>
        <g clip-path="url(#_clip1)">
            <g>
                <g transform="matrix(-8.44297e-17,-0.30069,-0.718803,5.48236e-17,4781.12,594.142)">
                    <path d="M892.978,9076.54L926.966,9111.23L913.984,9131.19L871.972,9131.19L858.99,9111.23L892.978,9076.54Z" style="fill:white;"/>
                </g>
                <g transform="matrix(8.44297e-17,-0.30069,0.718803,5.48236e-17,-8306.64,600.212)">
                    <path d="M892.978,9076.54L926.966,9111.23L913.984,9131.19L871.972,9131.19L858.99,9111.23L892.978,9076.54Z" style="fill:white;"/>
                </g>
                <g transform="matrix(0.718803,-5.37306e-17,-1.75071e-16,-0.30069,-2385.98,3054.97)">
                    <path d="M892.978,9076.54L926.966,9111.23L913.984,9131.19L871.972,9131.19L858.99,9111.23L892.978,9076.54Z" style="fill:white;"/>
                </g>
                <g transform="matrix(0.718803,-5.37306e-17,-1.75071e-16,-0.30069,-2415,3040.4)">
                    <path d="M892.978,9076.54L926.966,9111.23L913.984,9131.19L871.972,9131.19L858.99,9111.23L892.978,9076.54Z" style="fill:white;"/>
                </g>
                <g transform="matrix(0.718803,-5.37306e-17,-1.75071e-16,-0.30069,-2342.45,3071.36)">
                    <path d="M892.978,9076.54L926.966,9111.23L913.984,9131.19L871.972,9131.19L858.99,9111.23L892.978,9076.54Z" style="fill:white;"/>
                </g>
                <g transform="matrix(0.718803,-5.37306e-17,-1.75071e-16,-0.30069,-2355.51,3048.9)">
                    <path d="M892.978,9076.54L926.966,9111.23L913.984,9131.19L871.972,9131.19L858.99,9111.23L892.978,9076.54Z" style="fill:white;"/>
                </g>
                <g transform="matrix(0.718803,5.37306e-17,-1.75071e-16,0.30069,-2370.74,-2422.94)">
                    <path d="M892.978,9076.54L926.966,9111.23L913.984,9131.19L871.972,9131.19L858.99,9111.23L892.978,9076.54Z" style="fill:white;"/>
                </g>
                <g transform="matrix(0.718803,5.37306e-17,-1.75071e-16,0.30069,-2341.72,-2422.94)">
                    <path d="M892.978,9076.54L926.966,9111.23L913.984,9131.19L871.972,9131.19L858.99,9111.23L892.978,9076.54Z" style="fill:white;"/>
                </g>
            </g>
        </g>
    </g>
</svg>
