<?xml version="1.0" encoding="UTF-8" standalone="no"?>
<!DOCTYPE svg PUBLIC "-//W3C//DTD SVG 1.1//EN" "http://www.w3.org/Graphics/SVG/1.1/DTD/svg11.dtd">
<svg width="100%" height="100%" viewBox="0 0 106 106" version="1.1" xmlns="http://www.w3.org/2000/svg" xmlns:xlink="http://www.w3.org/1999/xlink" xml:space="preserve" xmlns:serif="http://www.serif.com/" style="fill-rule:evenodd;clip-rule:evenodd;stroke-linejoin:round;stroke-miterlimit:2;">
    <g transform="matrix(1.35961,0,0,3.25016,2688.04,-2638.2)">
        <g transform="matrix(0.865325,-6.53046e-17,-2.10757e-16,-0.365461,-2720.38,4152.59)">
            <path d="M900.822,9084.55l-5.389,5.501l10.247,15.751l15.962,0l-7.832,-7.995c-1.842,-0.008 -3.334,-1.491 -3.334,-3.317c0,-0.028 0.001,-0.056 0.001,-0.085l-9.655,-9.855Zm23.261,23.744l-18.403,-0c-0.855,-0 -1.651,-0.43 -2.114,-1.142l-10.247,-15.751c-0.634,-0.974 -0.506,-2.253 0.309,-3.085l5.442,-5.555l-6.092,-6.218l-33.988,34.694l12.982,19.955l42.012,0l12.982,-19.955l-2.883,-2.943Zm-20.834,14.23c-2.226,-0 -4.034,-1.79 -4.034,-3.995c0,-2.205 1.808,-3.995 4.034,-3.995c2.226,0 4.033,1.79 4.033,3.995c-0,2.205 -1.807,3.995 -4.033,3.995Zm-20.542,-0c-2.226,-0 -4.033,-1.79 -4.033,-3.995c-0,-2.205 1.807,-3.995 4.033,-3.995c2.226,0 4.033,1.79 4.033,3.995c0,2.205 -1.807,3.995 -4.033,3.995Z" style="fill:white;"/>
        </g>
        <g transform="matrix(0.683006,-5.15453e-17,-1.66352e-16,-0.28846,-2532.24,3458.77)">
            <path d="M892.978,9076.54l-33.988,34.694l12.982,19.955l42.012,0l12.982,-19.955l-33.988,-34.694Zm-10.687,44.52c-2.342,-0 -4.243,-1.883 -4.243,-4.203c0,-2.319 1.901,-4.202 4.243,-4.202c2.342,-0 4.243,1.883 4.243,4.202c0,2.32 -1.901,4.203 -4.243,4.203Zm21.374,-0c-2.342,-0 -4.243,-1.883 -4.243,-4.203c-0,-2.319 1.901,-4.202 4.243,-4.202c2.341,-0 4.242,1.883 4.242,4.202c0,2.32 -1.901,4.203 -4.242,4.203Z" style="fill:white;"/>
        </g>
    </g>
</svg>
