<?xml version="1.0" encoding="UTF-8" standalone="no"?>
<!DOCTYPE svg PUBLIC "-//W3C//DTD SVG 1.1//EN" "http://www.w3.org/Graphics/SVG/1.1/DTD/svg11.dtd">
<svg width="100%" height="100%" viewBox="0 0 160 160" version="1.1" xmlns="http://www.w3.org/2000/svg" xmlns:xlink="http://www.w3.org/1999/xlink" xml:space="preserve" xmlns:serif="http://www.serif.com/" style="fill-rule:evenodd;clip-rule:evenodd;stroke-linecap:round;stroke-linejoin:round;stroke-miterlimit:1.5;">
    <g transform="matrix(1.68458,0,0,4.027,2550.8,-1751.6)">
        <g transform="matrix(0.918969,0,0,0.384423,-2134.91,-130.243)">
            <path d="M704.299,1515.75C720.23,1515.75 733.165,1528.69 733.165,1544.62C733.165,1560.55 720.23,1573.49 704.299,1573.49C688.367,1573.49 675.433,1560.55 675.433,1544.62C675.433,1528.69 688.367,1515.75 704.299,1515.75ZM697.845,1552.91L693.533,1557.31L697.64,1563.62L710.93,1563.62L715.037,1557.31L710.857,1553.04C711.541,1552.5 712.155,1551.87 712.683,1551.17L716.986,1555.38L723.299,1551.28L723.299,1537.99L716.986,1533.88L712.391,1538.38C711.832,1537.7 711.189,1537.1 710.477,1536.59L715.037,1531.93L710.93,1525.62L697.64,1525.62L693.533,1531.93L698.218,1536.72C697.524,1537.24 696.899,1537.85 696.357,1538.53L691.612,1533.88L685.299,1537.99L685.299,1551.28L691.612,1555.38L696.072,1551.01C696.582,1551.72 697.178,1552.35 697.845,1552.91ZM707.912,1539.21C708.631,1539.67 709.255,1540.27 709.749,1540.97L706.011,1544.63L709.901,1548.44C709.437,1549.16 708.84,1549.78 708.144,1550.27L704.285,1546.33L700.433,1550.26C699.743,1549.78 699.151,1549.16 698.69,1548.45L702.587,1544.63L698.842,1540.96C699.333,1540.27 699.952,1539.67 700.664,1539.21L704.285,1542.91L707.912,1539.21Z" style="fill:white;"/>
        </g>
        <g transform="matrix(0.70749,0,0,0.295957,-1937.94,-1.74003)">
            <path d="M704.299,1515.75C720.23,1515.75 733.165,1528.69 733.165,1544.62C733.165,1560.55 720.23,1573.49 704.299,1573.49C688.367,1573.49 675.433,1560.55 675.433,1544.62C675.433,1528.69 688.367,1515.75 704.299,1515.75ZM712.683,1551.17L716.986,1555.38L723.299,1551.28L723.299,1537.99L716.986,1533.88L712.391,1538.38C711.832,1537.7 711.189,1537.1 710.477,1536.59L715.037,1531.93L710.93,1525.62L697.64,1525.62L693.533,1531.93L698.218,1536.72C697.524,1537.24 696.899,1537.85 696.357,1538.53L691.612,1533.88L685.299,1537.99L685.299,1551.28L691.612,1555.38L696.072,1551.01C696.582,1551.72 697.178,1552.35 697.845,1552.91L693.533,1557.31L697.64,1563.62L710.93,1563.62L715.037,1557.31L710.857,1553.04C711.541,1552.5 712.155,1551.87 712.683,1551.17ZM708.144,1550.27L704.285,1546.33L700.433,1550.26C699.743,1549.78 699.151,1549.16 698.69,1548.45L702.587,1544.63L698.842,1540.96C699.333,1540.27 699.952,1539.67 700.664,1539.21L704.285,1542.91L707.912,1539.21C708.631,1539.67 709.255,1540.27 709.749,1540.97L706.011,1544.63L709.901,1548.44C709.437,1549.16 708.84,1549.78 708.144,1550.27Z" style="fill:white;"/>
        </g>
        <g transform="matrix(0.457561,0,0,0.191407,-1800.03,144.893)">
            <path d="M704.299,1515.75C720.23,1515.75 733.165,1528.69 733.165,1544.62C733.165,1560.55 720.23,1573.49 704.299,1573.49C688.367,1573.49 675.433,1560.55 675.433,1544.62C675.433,1528.69 688.367,1515.75 704.299,1515.75ZM712.683,1551.17L716.986,1555.38L723.299,1551.28L723.299,1537.99L716.986,1533.88L712.391,1538.38C711.832,1537.7 711.189,1537.1 710.477,1536.59L715.037,1531.93L710.93,1525.62L697.64,1525.62L693.533,1531.93L698.218,1536.72C697.524,1537.24 696.899,1537.85 696.357,1538.53L691.612,1533.88L685.299,1537.99L685.299,1551.28L691.612,1555.38L696.072,1551.01C696.582,1551.72 697.178,1552.35 697.845,1552.91L693.533,1557.31L697.64,1563.62L710.93,1563.62L715.037,1557.31L710.857,1553.04C711.541,1552.5 712.155,1551.87 712.683,1551.17ZM708.144,1550.27L704.285,1546.33L700.433,1550.26C699.743,1549.78 699.151,1549.16 698.69,1548.45L702.587,1544.63L698.842,1540.96C699.333,1540.27 699.952,1539.67 700.664,1539.21L704.285,1542.91L707.912,1539.21C708.631,1539.67 709.255,1540.27 709.749,1540.97L706.011,1544.63L709.901,1548.44C709.437,1549.16 708.84,1549.78 708.144,1550.27Z" style="fill:white;"/>
        </g>
        <g transform="matrix(0.725521,0,0,0.3035,-2042.54,-27.2429)">
            <path d="M756.282,1584.41L826.178,1564.97" style="fill:none;stroke:white;stroke-width:4.91px;"/>
        </g>
        <g transform="matrix(0.725521,0,0,0.3035,-2042.54,-27.2429)">
            <path d="M786.978,1528.03L846.051,1569.82" style="fill:none;stroke:white;stroke-width:4.91px;"/>
        </g>
        <g transform="matrix(0.725521,0,0,0.3035,-2042.54,-27.2429)">
            <path d="M766.354,1549.87L813.634,1607.96" style="fill:none;stroke:white;stroke-width:4.91px;"/>
        </g>
        <g transform="matrix(0.725521,0,0,0.3035,-2042.54,-27.2429)">
            <path d="M778.033,1648.53L843.554,1612.72" style="fill:none;stroke:white;stroke-width:4.91px;"/>
        </g>
    </g>
</svg>
