<?xml version="1.0" encoding="UTF-8" standalone="no"?>
<!DOCTYPE svg PUBLIC "-//W3C//DTD SVG 1.1//EN" "http://www.w3.org/Graphics/SVG/1.1/DTD/svg11.dtd">
<svg width="100%" height="100%" viewBox="0 0 271 271" version="1.1" xmlns="http://www.w3.org/2000/svg" xmlns:xlink="http://www.w3.org/1999/xlink" xml:space="preserve" xmlns:serif="http://www.serif.com/" style="fill-rule:evenodd;clip-rule:evenodd;stroke-linejoin:round;stroke-miterlimit:2;">
    <g transform="matrix(0.16898,0,0,0.16898,135.184,135.184)">
        <g id="facebook-logo-2019.svg" transform="matrix(1,0,0,1,-800,-800)">
            <g>
                <path d="M1600,800C1600,358.172 1241.83,0 800,0C358.172,0 0,358.172 0,800C0,1199.3 292.548,1530.27 675,1590.28L675,1031.25L471.875,1031.25L471.875,800L675,800L675,623.75C675,423.25 794.434,312.5 977.172,312.5C1064.7,312.5 1156.25,328.125 1156.25,328.125L1156.25,525L1055.37,525C955.992,525 925,586.667 925,649.933L925,800L1146.88,800L1111.41,1031.25L925,1031.25L925,1590.28C1307.45,1530.27 1600,1199.3 1600,800" style="fill:rgb(255,73,73);"/>
                <path d="M1146.88,800L925,800L925,649.933C925,586.667 955.992,525 1055.37,525L1156.25,525L1156.25,328.125C1156.25,328.125 1064.7,312.5 977.172,312.5C794.434,312.5 675,423.25 675,623.75L675,800L471.875,800L471.875,1031.25L675,1031.25L675,1590.28C715.73,1596.67 757.475,1600 800,1600C842.525,1600 884.27,1596.67 925,1590.28L925,1031.25L1111.41,1031.25L1146.88,800Z" style="fill:white;"/>
            </g>
        </g>
        <g id="facebook-logo-2019.svg1" serif:id="facebook-logo-2019.svg">
        </g>
    </g>
</svg>
