<?xml version="1.0" encoding="UTF-8" standalone="no"?>
<!DOCTYPE svg PUBLIC "-//W3C//DTD SVG 1.1//EN" "http://www.w3.org/Graphics/SVG/1.1/DTD/svg11.dtd">
<svg width="100%" height="100%" viewBox="0 0 201 201" version="1.1" xmlns="http://www.w3.org/2000/svg" xmlns:xlink="http://www.w3.org/1999/xlink" xml:space="preserve" xmlns:serif="http://www.serif.com/" style="fill-rule:evenodd;clip-rule:evenodd;stroke-linejoin:round;stroke-miterlimit:2;">
    <g id="Layer1" transform="matrix(1,0,0,1,-559.445,-313.322)">
        <path d="M660,313.322L701.935,364.463C701.935,364.463 693.28,371.407 685.416,380.934C677.759,390.211 673.759,397.217 673.759,397.217C673.759,397.217 667.775,392.668 659.942,392.698C650.536,392.733 646.124,397.217 646.124,397.217C646.124,397.217 636.786,383.792 634.441,380.934C630.486,376.117 618.676,364.463 618.676,364.463L660,313.322Z" style="fill:white;"/>
        <g transform="matrix(6.12323e-17,1,-1,6.12323e-17,1073.63,-246.23)">
            <path d="M660,313.322L701.935,364.463C701.935,364.463 693.28,371.407 685.416,380.934C677.759,390.211 673.759,397.217 673.759,397.217C673.759,397.217 667.775,392.668 659.942,392.698C650.536,392.733 646.124,397.217 646.124,397.217C646.124,397.217 636.786,383.792 634.441,380.934C630.486,376.117 618.676,364.463 618.676,364.463L660,313.322Z" style="fill:white;"/>
        </g>
        <g transform="matrix(-1,1.22465e-16,-1.22465e-16,-1,1320.31,827.191)">
            <path d="M660,313.322L701.935,364.463C701.935,364.463 693.28,371.407 685.416,380.934C677.759,390.211 673.759,397.217 673.759,397.217C673.759,397.217 667.775,392.668 659.942,392.698C650.536,392.733 646.124,397.217 646.124,397.217C646.124,397.217 636.786,383.792 634.441,380.934C630.486,376.117 618.676,364.463 618.676,364.463L660,313.322Z" style="fill:white;"/>
        </g>
        <g transform="matrix(-1.83697e-16,-1,1,-1.83697e-16,246.122,1074.38)">
            <path d="M660,313.322L701.935,364.463C701.935,364.463 693.28,371.407 685.416,380.934C677.759,390.211 673.759,397.217 673.759,397.217C673.759,397.217 667.775,392.668 659.942,392.698C650.536,392.733 646.124,397.217 646.124,397.217C646.124,397.217 636.786,383.792 634.441,380.934C630.486,376.117 618.676,364.463 618.676,364.463L660,313.322Z" style="fill:white;"/>
        </g>
    </g>
</svg>
