<?xml version="1.0" encoding="UTF-8" standalone="no"?>
<!DOCTYPE svg PUBLIC "-//W3C//DTD SVG 1.1//EN" "http://www.w3.org/Graphics/SVG/1.1/DTD/svg11.dtd">
<svg width="100%" height="100%" viewBox="0 0 160 160" version="1.1" xmlns="http://www.w3.org/2000/svg" xmlns:xlink="http://www.w3.org/1999/xlink" xml:space="preserve" xmlns:serif="http://www.serif.com/" style="fill-rule:evenodd;clip-rule:evenodd;stroke-linecap:round;stroke-linejoin:round;stroke-miterlimit:1.5;">
    <g transform="matrix(8.35667e-17,1.36475,-3.25987,1.9961e-16,1606.85,2624.58)">
        <g transform="matrix(1,0,0,1,-0.260088,0)">
            <g transform="matrix(0.628351,0,0,0.262852,-2347.27,74.5562)">
                <path d="M704.299,1515.75c15.931,0 28.866,12.935 28.866,28.866c-0,15.932 -12.935,28.866 -28.866,28.866c-15.932,0 -28.866,-12.934 -28.866,-28.866c-0,-15.931 12.934,-28.866 28.866,-28.866Zm-6.454,37.152l-4.312,4.401l4.107,6.313l13.29,0l4.107,-6.313l-4.18,-4.266c0.684,-0.545 1.298,-1.175 1.826,-1.874l4.303,4.215l6.313,-4.106l-0,-13.291l-6.313,-4.107l-4.595,4.502c-0.559,-0.675 -1.202,-1.278 -1.914,-1.793l4.56,-4.654l-4.107,-6.313l-13.29,0l-4.107,6.313l4.685,4.782c-0.694,0.524 -1.319,1.133 -1.861,1.813l-4.745,-4.65l-6.313,4.107l-0,13.291l6.313,4.106l4.46,-4.369c0.51,0.703 1.106,1.339 1.773,1.893Zm0.845,-4.458l3.897,-3.818l-3.745,-3.668c0.491,-0.692 1.11,-1.287 1.822,-1.749l3.621,3.695l3.627,-3.702c0.719,0.465 1.343,1.064 1.837,1.762l-3.738,3.662l3.89,3.812c-0.464,0.716 -1.061,1.337 -1.757,1.83l-3.859,-3.94l-3.852,3.932c-0.69,-0.489 -1.282,-1.106 -1.743,-1.816Z" style="fill:white;"/>
            </g>
            <g transform="matrix(0.628351,0,0,0.262852,-2266.31,62.4599)">
                <path d="M704.299,1515.75c15.931,0 28.866,12.935 28.866,28.866c-0,15.932 -12.935,28.866 -28.866,28.866c-15.932,0 -28.866,-12.934 -28.866,-28.866c-0,-15.931 12.934,-28.866 28.866,-28.866Zm-6.454,37.152l-4.312,4.401l4.107,6.313l13.29,0l4.107,-6.313l-4.18,-4.266c0.684,-0.545 1.298,-1.175 1.826,-1.874l4.303,4.215l6.313,-4.106l-0,-13.291l-6.313,-4.107l-4.595,4.502c-0.559,-0.675 -1.202,-1.278 -1.914,-1.793l4.56,-4.654l-4.107,-6.313l-13.29,0l-4.107,6.313l4.685,4.782c-0.694,0.524 -1.319,1.133 -1.861,1.813l-4.745,-4.65l-6.313,4.107l-0,13.291l6.313,4.106l4.46,-4.369c0.51,0.703 1.106,1.339 1.773,1.893Zm0.845,-4.458l3.897,-3.818l-3.745,-3.668c0.491,-0.692 1.11,-1.287 1.822,-1.749l3.621,3.695l3.627,-3.702c0.719,0.465 1.343,1.064 1.837,1.762l-3.738,3.662l3.89,3.812c-0.464,0.716 -1.061,1.337 -1.757,1.83l-3.859,-3.94l-3.852,3.932c-0.69,-0.489 -1.282,-1.106 -1.743,-1.816Z" style="fill:white;"/>
            </g>
        </g>
        <g transform="matrix(0.628351,5.80877e-33,0,0.262852,-2307.96,46.3844)">
            <path d="M704.299,1515.75c15.931,0 28.866,12.935 28.866,28.866c-0,15.932 -12.935,28.866 -28.866,28.866c-15.932,0 -28.866,-12.934 -28.866,-28.866c-0,-15.931 12.934,-28.866 28.866,-28.866Zm-6.454,37.152l-4.312,4.401l4.107,6.313l13.29,0l4.107,-6.313l-4.18,-4.266c0.684,-0.545 1.298,-1.175 1.826,-1.874l4.303,4.215l6.313,-4.106l-0,-13.291l-6.313,-4.107l-4.595,4.502c-0.559,-0.675 -1.202,-1.278 -1.914,-1.793l4.56,-4.654l-4.107,-6.313l-13.29,0l-4.107,6.313l4.685,4.782c-0.694,0.524 -1.319,1.133 -1.861,1.813l-4.745,-4.65l-6.313,4.107l-0,13.291l6.313,4.106l4.46,-4.369c0.51,0.703 1.106,1.339 1.773,1.893Zm0.845,-4.458l3.897,-3.818l-3.745,-3.668c0.491,-0.692 1.11,-1.287 1.822,-1.749l3.621,3.695l3.627,-3.702c0.719,0.465 1.343,1.064 1.837,1.762l-3.738,3.662l3.89,3.812c-0.464,0.716 -1.061,1.337 -1.757,1.83l-3.859,-3.94l-3.852,3.932c-0.69,-0.489 -1.282,-1.106 -1.743,-1.816Z" style="fill:white;"/>
        </g>
        <g transform="matrix(6.77608e-17,-0.463286,1.11415,2.85611e-17,-4302.99,970.831)">
            <path d="M1109.81,2180.98l-68.3,0c-3.654,0 -6.621,2.947 -6.621,6.577c-0,3.63 2.967,6.576 6.621,6.576l68.3,0" style="fill:none;stroke:white;stroke-width:3.3px;"/>
        </g>
        <g transform="matrix(6.77608e-17,-0.463286,1.11415,2.85611e-17,-4342.55,970.831)">
            <path d="M1046.35,2180.98l-4.846,0c-3.654,0 -6.621,2.947 -6.621,6.577c-0,3.63 2.967,6.576 6.621,6.576l4.846,0m24.262,0l56.97,0c3.655,0 6.622,-2.946 6.622,-6.576c-0,-3.63 -2.967,-6.577 -6.622,-6.577l-56.97,0" style="fill:none;stroke:white;stroke-width:3.3px;"/>
        </g>
        <g transform="matrix(6.77608e-17,-0.463286,1.11415,2.85611e-17,-4261.22,970.831)">
            <path d="M1072.17,2180.98l-30.659,0c-3.654,0 -6.621,2.947 -6.621,6.577c-0,3.63 2.967,6.576 6.621,6.576l30.659,0m24.261,0l31.158,0c3.655,0 6.622,-2.946 6.622,-6.576c-0,-3.63 -2.967,-6.577 -6.622,-6.577l-31.158,0" style="fill:none;stroke:white;stroke-width:3.3px;"/>
        </g>
    </g>
</svg>
