<?xml version="1.0" encoding="UTF-8" standalone="no"?>
<!DOCTYPE svg PUBLIC "-//W3C//DTD SVG 1.1//EN" "http://www.w3.org/Graphics/SVG/1.1/DTD/svg11.dtd">
<svg width="100%" height="100%" viewBox="0 0 106 106" version="1.1" xmlns="http://www.w3.org/2000/svg" xmlns:xlink="http://www.w3.org/1999/xlink" xml:space="preserve" xmlns:serif="http://www.serif.com/" style="fill-rule:evenodd;clip-rule:evenodd;stroke-linejoin:round;stroke-miterlimit:2;">
    <g transform="matrix(0.904413,0,0,2.16201,1596.55,-2215.66)">
        <g transform="matrix(0.429227,0,0,0.179554,-1824.72,977.507)">
            <path d="M310.014,427.269c-15.206,13.719 -35.969,23.129 -59.33,25.759c-4.381,0.493 -8.854,0.748 -13.398,0.748c-11.286,0 -22.266,-1.519 -32.331,-4.558c-0.916,-0.304 -2.136,-0.304 -3.051,-0.304c-1.83,-0 -3.661,0.608 -5.185,1.52l-21.656,12.459c-0.61,0.304 -1.22,0.608 -1.83,0.608c-1.83,0 -3.355,-1.519 -3.355,-3.343c0,-0.911 0.305,-1.519 0.61,-2.43c0.305,-0.304 3.05,-10.334 4.575,-16.412c-0,-0.608 0.305,-1.52 0.305,-2.127c-0,-2.431 -0.915,-4.255 -2.745,-5.471c-20.741,-14.891 -34.161,-37.38 -34.161,-61.997c-0,-45.282 44.227,-82.055 98.824,-82.055c51.657,0 94.031,32.92 98.444,74.819c0.252,2.385 0.38,4.798 0.38,7.236c-0,18.017 -7.002,34.687 -18.872,48.229c1.061,-2.155 1.656,-4.58 1.656,-7.142c0,-8.948 -7.264,-16.213 -16.212,-16.213c-8.948,0 -16.212,7.265 -16.212,16.213c-0,8.948 7.264,16.212 16.212,16.212c2.638,0 5.13,-0.631 7.332,-1.751Zm-92.969,-82.039c-0,-7.088 -5.612,-12.7 -12.701,-12.7c-7.088,-0 -12.7,5.612 -12.7,12.7c0,7.088 5.612,12.7 12.7,12.7c7.089,0 12.701,-5.612 12.701,-12.7Zm65.882,-0c0,-7.088 -5.612,-12.7 -12.7,-12.7c-7.088,-0 -12.7,5.612 -12.7,12.7c-0,7.088 5.612,12.7 12.7,12.7c7.088,0 12.7,-5.612 12.7,-12.7Z" fill="rgb(255,73,73)"/>
        </g>
        <g transform="matrix(0.429227,0,0,0.179554,-1824.72,977.507)">
            <path d="M329.363,502.067c-45.338,-0 -82.155,-30.926 -82.155,-68.894c-0,-38.274 36.817,-68.893 82.155,-68.893c45.337,0 82.155,30.926 82.155,68.893c-0,20.821 -10.954,39.499 -28.298,52.053c-1.522,1.225 -2.435,2.756 -2.435,4.593c0,0.613 0,1.225 0.305,1.837c1.217,5.206 3.652,13.472 3.652,13.779c-0,0.918 0.304,1.531 0.304,2.143l-0,0.02c-0,1.501 -1.237,2.736 -2.738,2.736c-0.608,-0 -0.914,-0.307 -1.523,-0.612l-17.951,-10.411c-1.218,-0.612 -2.739,-1.225 -4.261,-1.225c-0.912,-0 -1.825,-0 -2.434,0.306c-8.216,2.45 -17.344,3.675 -26.776,3.675Zm-37.704,-90.16c-0,6.173 4.939,11.112 11.113,11.112c6.173,0 11.112,-4.939 11.112,-11.112c0,-6.174 -4.939,-11.113 -11.112,-11.113c-6.174,-0 -11.113,4.939 -11.113,11.113Zm54.77,-0c-0,6.173 4.939,11.112 11.113,11.112c6.173,0 11.112,-4.939 11.112,-11.112c0,-6.174 -4.939,-11.113 -11.112,-11.113c-6.174,-0 -11.113,4.939 -11.113,11.113Z" fill="#FFFFFF" />
        </g>
    </g>
</svg>
